<svg width="361" height="361" viewBox="0 0 361 361" fill="none" xmlns="http://www.w3.org/2000/svg">
<mask id="path-1-outside-1_254_70" maskUnits="userSpaceOnUse" x="0.126449" y="-0.171891" width="361" height="361" fill="black">
<rect fill="white" x="0.126449" y="-0.171891" width="361" height="361"/>
<path fill-rule="evenodd" clip-rule="evenodd" d="M286.566 39.489C327.637 70.4419 354.681 118.899 356.761 173.573L249.313 173.758C249.311 173.492 249.311 173.225 249.31 172.959C249.225 124.092 262.849 78.3967 286.566 39.489ZM245.784 173.434C245.784 173.544 245.785 173.654 245.785 173.764L180.058 173.877L179.764 4.06726C180.937 4.06265 182.113 4.06955 183.291 4.08801C220.826 4.67657 255.438 16.9484 283.716 37.3856C259.571 76.8867 245.697 123.31 245.782 172.965C245.783 173.121 245.783 173.278 245.784 173.434ZM176.237 4.11584L176.53 173.883L116.264 173.987C115.784 124.069 101.206 77.5312 76.3135 38.1297C104.476 17.4777 138.963 4.99664 176.237 4.11584ZM176.536 177.411L116.274 177.514C116.079 230.254 100.136 279.299 72.8815 320.209C101.723 342.453 137.674 355.985 176.847 356.79L176.536 177.411ZM180.375 356.828C221.98 356.868 260.324 342.453 290.57 318.271C263.136 277.935 246.77 229.5 245.825 177.292L180.064 177.405L180.375 356.828ZM73.4802 40.2513C97.9377 79.0599 112.258 124.868 112.736 173.993L4.23822 174.18C6.16803 119.463 32.9357 71.2478 73.4802 40.2513ZM112.747 177.521L4.14846 177.707C3.26339 234.313 29.1449 285.106 70.1004 318.02C96.8858 277.716 112.551 229.433 112.747 177.521ZM356.86 177.101L249.353 177.286C250.294 228.649 266.368 276.309 293.314 316.031C331.443 284.278 356.023 236.714 356.867 183.212C356.9 181.167 356.897 179.13 356.86 177.101Z"/>
</mask>
<path fill-rule="evenodd" clip-rule="evenodd" d="M286.566 39.489C327.637 70.4419 354.681 118.899 356.761 173.573L249.313 173.758C249.311 173.492 249.311 173.225 249.31 172.959C249.225 124.092 262.849 78.3967 286.566 39.489ZM245.784 173.434C245.784 173.544 245.785 173.654 245.785 173.764L180.058 173.877L179.764 4.06726C180.937 4.06265 182.113 4.06955 183.291 4.08801C220.826 4.67657 255.438 16.9484 283.716 37.3856C259.571 76.8867 245.697 123.31 245.782 172.965C245.783 173.121 245.783 173.278 245.784 173.434ZM176.237 4.11584L176.53 173.883L116.264 173.987C115.784 124.069 101.206 77.5312 76.3135 38.1297C104.476 17.4777 138.963 4.99664 176.237 4.11584ZM176.536 177.411L116.274 177.514C116.079 230.254 100.136 279.299 72.8815 320.209C101.723 342.453 137.674 355.985 176.847 356.79L176.536 177.411ZM180.375 356.828C221.98 356.868 260.324 342.453 290.57 318.271C263.136 277.935 246.77 229.5 245.825 177.292L180.064 177.405L180.375 356.828ZM73.4802 40.2513C97.9377 79.0599 112.258 124.868 112.736 173.993L4.23822 174.18C6.16803 119.463 32.9357 71.2478 73.4802 40.2513ZM112.747 177.521L4.14846 177.707C3.26339 234.313 29.1449 285.106 70.1004 318.02C96.8858 277.716 112.551 229.433 112.747 177.521ZM356.86 177.101L249.353 177.286C250.294 228.649 266.368 276.309 293.314 316.031C331.443 284.278 356.023 236.714 356.867 183.212C356.9 181.167 356.897 179.13 356.86 177.101Z" fill="#FF5E00"/>
<path d="M356.761 173.573L356.767 177.101L360.425 177.095L360.286 173.439L356.761 173.573ZM286.566 39.489L288.689 36.6719L285.581 34.3288L283.554 37.6529L286.566 39.489ZM249.313 173.758L245.785 173.775L245.802 177.292L249.319 177.286L249.313 173.758ZM249.31 172.959L252.838 172.953L252.838 172.953L249.31 172.959ZM245.785 173.764L245.791 177.292L249.329 177.286L249.313 173.747L245.785 173.764ZM245.784 173.434L242.256 173.447L242.256 173.447L245.784 173.434ZM180.058 173.877L176.53 173.883L176.536 177.411L180.064 177.405L180.058 173.877ZM179.764 4.06726L179.75 0.53965L176.23 0.553478L176.236 4.07336L179.764 4.06726ZM183.291 4.08801L183.346 0.560808L183.346 0.560807L183.291 4.08801ZM283.716 37.3856L286.726 39.2254L288.429 36.4392L285.783 34.5265L283.716 37.3856ZM245.782 172.965L242.255 172.971L242.255 172.971L245.782 172.965ZM176.53 173.883L176.536 177.411L180.064 177.405L180.058 173.877L176.53 173.883ZM176.237 4.11584L179.764 4.10973L179.758 0.504009L176.153 0.589191L176.237 4.11584ZM116.264 173.987L112.736 174.021L112.77 177.521L116.27 177.515L116.264 173.987ZM76.3135 38.1297L74.2274 35.285L71.5733 37.2313L73.3312 40.0138L76.3135 38.1297ZM116.274 177.514L116.268 173.987L112.76 173.993L112.747 177.501L116.274 177.514ZM176.536 177.411L180.064 177.405L180.058 173.877L176.53 173.883L176.536 177.411ZM72.8815 320.209L69.9457 318.253L68.1209 320.992L70.7271 323.002L72.8815 320.209ZM176.847 356.79L176.774 360.317L180.381 360.391L180.375 356.784L176.847 356.79ZM290.57 318.271L292.773 321.026L295.323 318.987L293.487 316.287L290.57 318.271ZM180.375 356.828L176.847 356.834L176.853 360.352L180.371 360.356L180.375 356.828ZM245.825 177.292L249.352 177.228L249.29 173.758L245.819 173.764L245.825 177.292ZM180.064 177.405L180.058 173.877L176.53 173.883L176.536 177.411L180.064 177.405ZM112.736 173.993L112.742 177.521L116.298 177.514L116.264 173.959L112.736 173.993ZM73.4802 40.2513L76.4646 38.3705L74.4056 35.1033L71.3377 37.4488L73.4802 40.2513ZM4.23822 174.18L0.712776 174.055L0.583751 177.713L4.24429 177.707L4.23822 174.18ZM4.14846 177.707L4.14239 174.18L0.675459 174.186L0.621257 177.652L4.14846 177.707ZM112.747 177.521L116.274 177.534L116.288 173.987L112.741 173.993L112.747 177.521ZM70.1004 318.02L67.8906 320.769L70.9009 323.188L73.0384 319.972L70.1004 318.02ZM249.353 177.286L249.347 173.758L245.761 173.764L245.826 177.35L249.353 177.286ZM356.86 177.101L360.387 177.036L360.324 173.567L356.854 173.573L356.86 177.101ZM293.314 316.031L290.395 318.012L292.58 321.233L295.572 318.742L293.314 316.031ZM356.867 183.212L360.395 183.268L360.395 183.268L356.867 183.212ZM360.286 173.439C358.165 117.664 330.574 68.2378 288.689 36.6719L284.443 42.3062C324.701 72.6461 351.198 120.134 353.236 173.707L360.286 173.439ZM249.319 177.286L356.767 177.101L356.755 170.046L249.307 170.23L249.319 177.286ZM245.782 172.965C245.783 173.235 245.784 173.505 245.785 173.775L252.84 173.741C252.839 173.478 252.838 173.216 252.838 172.953L245.782 172.965ZM283.554 37.6529C259.508 77.0993 245.697 123.43 245.782 172.965L252.838 172.953C252.754 124.754 266.189 79.6941 289.578 41.3252L283.554 37.6529ZM249.313 173.747C249.312 173.639 249.312 173.53 249.311 173.422L242.256 173.447C242.256 173.558 242.257 173.67 242.257 173.781L249.313 173.747ZM180.064 177.405L245.791 177.292L245.779 170.236L180.052 170.35L180.064 177.405ZM176.236 4.07336L176.53 173.883L183.586 173.871L183.292 4.06115L176.236 4.07336ZM183.346 0.560807C182.145 0.541984 180.946 0.534951 179.75 0.53965L179.778 7.59486C180.928 7.59035 182.08 7.59711 183.236 7.61521L183.346 0.560807ZM285.783 34.5265C256.937 13.6795 221.627 1.16107 183.346 0.560808L183.236 7.61521C220.025 8.19207 253.938 20.2173 281.65 40.2447L285.783 34.5265ZM249.31 172.959C249.225 123.974 262.911 78.187 286.726 39.2254L280.707 35.5458C256.231 75.5864 242.168 122.646 242.255 172.971L249.31 172.959ZM249.311 173.422C249.311 173.268 249.31 173.113 249.31 172.959L242.255 172.971C242.255 173.129 242.255 173.288 242.256 173.447L249.311 173.422ZM180.058 173.877L179.764 4.10973L172.709 4.12195L173.003 173.889L180.058 173.877ZM116.27 177.515L176.536 177.411L176.524 170.356L116.258 170.459L116.27 177.515ZM73.3312 40.0138C97.8839 78.8777 112.263 124.778 112.736 174.021L119.791 173.953C119.305 123.361 104.528 76.1847 79.2959 36.2456L73.3312 40.0138ZM176.153 0.589191C138.134 1.4876 102.952 14.2204 74.2274 35.285L78.3996 40.9744C105.999 20.7351 139.792 8.50568 176.32 7.64249L176.153 0.589191ZM116.28 181.042L176.543 180.938L176.53 173.883L116.268 173.987L116.28 181.042ZM75.8173 322.165C103.443 280.697 119.604 230.981 119.802 177.528L112.747 177.501C112.554 229.528 96.8287 277.9 69.9457 318.253L75.8173 322.165ZM176.919 353.263C138.527 352.474 103.3 339.215 75.0359 317.416L70.7271 323.002C100.145 345.692 136.822 359.496 176.774 360.317L176.919 353.263ZM180.375 356.784L180.064 177.405L173.009 177.417L173.319 356.796L180.375 356.784ZM288.367 315.515C258.725 339.215 221.153 353.339 180.378 353.3L180.371 360.356C222.807 360.396 261.924 345.69 292.773 321.026L288.367 315.515ZM242.298 177.355C243.255 230.271 259.846 279.369 287.653 320.255L293.487 316.287C266.426 276.5 250.284 228.729 249.352 177.228L242.298 177.355ZM180.07 180.932L245.831 180.819L245.819 173.764L180.058 173.877L180.07 180.932ZM176.536 177.411L176.847 356.834L183.902 356.822L183.592 177.399L176.536 177.411ZM116.264 173.959C115.779 124.16 101.26 77.7159 76.4646 38.3705L70.4957 42.1321C94.615 80.4039 108.737 125.575 109.209 174.027L116.264 173.959ZM4.24429 177.707L112.742 177.521L112.73 170.465L4.23215 170.652L4.24429 177.707ZM71.3377 37.4488C29.99 69.0594 2.68132 118.241 0.712776 174.055L7.76366 174.304C9.65475 120.686 35.8814 73.4363 75.6227 43.0538L71.3377 37.4488ZM4.15453 181.235L112.753 181.048L112.741 173.993L4.14239 174.18L4.15453 181.235ZM72.3102 315.27C32.1664 283.008 6.80832 233.234 7.67566 177.763L0.621257 177.652C-0.281546 235.392 26.1233 287.203 67.8906 320.769L72.3102 315.27ZM109.219 177.507C109.026 228.708 93.5778 276.32 67.1624 316.067L73.0384 319.972C100.194 279.112 116.076 230.158 116.274 177.534L109.219 177.507ZM249.359 180.813L356.866 180.628L356.854 173.573L249.347 173.758L249.359 180.813ZM296.233 314.051C269.659 274.877 253.808 227.879 252.88 177.221L245.826 177.35C246.78 229.419 263.077 277.741 290.395 318.012L296.233 314.051ZM353.34 183.157C352.513 235.588 328.429 282.197 291.057 313.321L295.572 318.742C334.456 286.359 359.534 237.841 360.395 183.268L353.34 183.157ZM353.333 177.165C353.369 179.154 353.372 181.152 353.34 183.157L360.395 183.268C360.428 181.183 360.425 179.106 360.387 177.036L353.333 177.165Z" fill="white" mask="url(#path-1-outside-1_254_70)"/>
</svg>
