<svg width="362" height="361" viewBox="0 0 362 361" fill="none" xmlns="http://www.w3.org/2000/svg">
<mask id="path-1-outside-1_254_159" maskUnits="userSpaceOnUse" x="1.07518" y="-0.171891" width="361" height="361" fill="black">
<rect fill="white" x="1.07518" y="-0.171891" width="361" height="361"/>
<path d="M184.24 4.08802C281.64 5.61527 359.353 85.812 357.816 183.212C356.279 280.613 276.075 358.333 178.674 356.806C81.2737 355.279 3.56078 275.082 5.09759 177.682C6.63441 80.2813 86.839 2.56077 184.24 4.08802Z"/>
</mask>
<path d="M184.24 4.08802C281.64 5.61527 359.353 85.812 357.816 183.212C356.279 280.613 276.075 358.333 178.674 356.806C81.2737 355.279 3.56078 275.082 5.09759 177.682C6.63441 80.2813 86.839 2.56077 184.24 4.08802Z" fill="#FF5E00"/>
<path d="M184.184 7.61522C279.637 9.11192 355.795 87.7045 354.289 183.157L361.343 183.268C362.911 83.9195 283.644 2.11862 184.295 0.56082L184.184 7.61522ZM354.289 183.157C352.783 278.609 274.182 354.775 178.73 353.279L178.619 360.333C277.967 361.891 359.776 282.616 361.343 183.268L354.289 183.157ZM178.73 353.279C83.2772 351.782 7.11871 273.19 8.62479 177.737L1.5704 177.626C0.00284614 276.975 79.2702 358.775 178.619 360.333L178.73 353.279ZM8.62479 177.737C10.1309 82.2848 88.7316 6.11851 184.184 7.61522L184.295 0.56082C84.9464 -0.996975 3.13795 78.2778 1.5704 177.626L8.62479 177.737Z" fill="white" mask="url(#path-1-outside-1_254_159)"/>
<path d="M38.7449 127.988C39.2274 123.665 44.2088 121.485 47.7114 124.064L92.2326 156.85C95.7353 159.429 95.1322 164.833 91.1471 166.577L40.4933 188.741C36.5082 190.484 32.1299 187.26 32.6124 182.937L38.7449 127.988Z" fill="white"/>
<path d="M177.59 193.374C178.072 189.051 183.054 186.871 186.556 189.451L231.077 222.236C234.58 224.816 233.977 230.219 229.992 231.963L179.338 254.127C175.353 255.871 170.975 252.646 171.457 248.323L177.59 193.374Z" fill="white"/>
<path d="M158.322 276.811C160.961 273.353 166.354 274.049 168.028 278.064L189.315 329.092C190.99 333.107 187.691 337.429 183.377 336.872L128.541 329.793C124.227 329.236 122.134 324.218 124.773 320.76L158.322 276.811Z" fill="white"/>
<path d="M230.044 85.3449C227.475 81.8343 229.67 76.8597 233.995 76.3906L288.963 70.428C293.287 69.9589 296.498 74.3471 294.742 78.3268L272.422 128.912C270.666 132.892 265.26 133.478 262.692 129.967L230.044 85.3449Z" fill="white"/>
<path d="M61.4865 252.665C61.969 248.342 66.9504 246.162 70.453 248.742L88.1499 261.774C91.6526 264.353 91.0495 269.757 87.0644 271.501L66.9298 280.311C62.9447 282.054 58.5664 278.83 59.0489 274.507L61.4865 252.665Z" fill="white"/>
<path d="M153.701 231.74C157.889 230.564 161.779 234.363 160.703 238.578L155.266 259.873C154.19 264.087 148.955 265.557 145.843 262.518L130.12 247.162C127.008 244.123 128.353 238.854 132.541 237.679L153.701 231.74Z" fill="white"/>
<path d="M155.2 43.1481C153.94 38.9847 157.66 35.0186 161.895 36.0091L183.296 41.0134C187.531 42.0038 189.106 47.2081 186.131 50.381L171.097 66.4121C168.121 69.585 162.827 68.3469 161.567 64.1835L155.2 43.1481Z" fill="white"/>
<path d="M75.832 211.811C73.0942 208.431 75.0424 203.355 79.3387 202.674L110.195 197.784C114.492 197.103 117.914 201.329 116.355 205.39L105.162 234.557C103.603 238.619 98.2327 239.47 95.495 236.089L75.832 211.811Z" fill="white"/>
<path d="M215.414 172.128C213.252 168.354 215.987 163.654 220.337 163.669L251.578 163.776C255.928 163.791 258.631 168.509 256.443 172.269L240.73 199.271C238.542 203.031 233.105 203.012 230.943 199.238L215.414 172.128Z" fill="white"/>
<path d="M165.435 135.931C162.697 132.551 164.645 127.474 168.942 126.794L199.798 121.904C204.095 121.223 207.517 125.448 205.958 129.509L194.765 158.677C193.206 162.738 187.836 163.589 185.098 160.209L165.435 135.931Z" fill="white"/>
<path d="M117.109 103.809C112.823 103.067 110.947 97.9639 113.733 94.6228L133.738 70.6259C136.523 67.2847 141.881 68.2117 143.382 72.2945L154.161 101.618C155.662 105.701 152.18 109.877 147.894 109.135L117.109 103.809Z" fill="white"/>
<path d="M53.2294 85.8823C50.4917 82.502 52.4398 77.4256 56.7361 76.7448L87.5929 71.855C91.8892 71.1742 95.3113 75.3996 93.7528 79.4606L82.5591 108.628C81.0006 112.689 75.6302 113.54 72.8925 110.16L53.2294 85.8823Z" fill="white"/>
<path d="M284.418 139.907C285.301 135.648 290.463 133.941 293.711 136.835L317.034 157.622C320.282 160.516 319.178 165.84 315.048 167.205L285.385 177.011C281.255 178.376 277.196 174.758 278.078 170.499L284.418 139.907Z" fill="white"/>
<path d="M288.669 237.411C284.486 236.215 283.167 230.94 286.294 227.917L308.752 206.198C311.879 203.174 317.107 204.669 318.162 208.889L325.742 239.198C326.797 243.418 322.888 247.198 318.706 246.002L288.669 237.411Z" fill="white"/>
<path d="M195.159 288.397C190.977 287.201 189.658 281.926 192.784 278.903L215.243 257.184C218.369 254.16 223.597 255.655 224.653 259.875L232.232 290.184C233.287 294.404 229.379 298.184 225.197 296.988L195.159 288.397Z" fill="white"/>
<path d="M269.524 299.208C265.391 300.564 261.34 296.937 262.233 292.679L268.642 262.102C269.535 257.845 274.701 256.15 277.942 259.052L301.218 279.891C304.459 282.792 303.343 288.114 299.21 289.47L269.524 299.208Z" fill="white"/>
<path d="M119.969 172.574C115.645 172.105 113.45 167.13 116.018 163.62L137.746 133.922C140.315 130.412 145.72 130.998 147.476 134.978L162.331 168.643C164.087 172.623 160.877 177.011 156.552 176.542L119.969 172.574Z" fill="white"/>
<path d="M203.288 31.04C202.41 26.7797 206.473 23.1662 210.601 24.5358L233.041 31.9796C237.169 33.3491 238.267 38.6745 235.017 41.5653L217.351 57.2764C214.1 60.1671 208.939 58.4551 208.061 54.1948L203.288 31.04Z" fill="white"/>
<path d="M94.4852 120.829C94.4504 116.48 99.1373 113.723 102.922 115.868L113.263 121.729C117.048 123.873 117.091 129.311 113.342 131.516L103.095 137.541C99.3459 139.746 94.6153 137.065 94.5805 132.716L94.4852 120.829Z" fill="white"/>
<path d="M109.607 41.6271C109.572 37.2773 114.259 34.521 118.043 36.6657L128.385 42.5263C132.169 44.671 132.213 50.1082 128.463 52.3133L118.217 58.3389C114.467 60.5439 109.737 57.8631 109.702 53.5133L109.607 41.6271Z" fill="white"/>
<path d="M31.305 209.533C31.2702 205.183 35.9571 202.427 39.7416 204.571L50.083 210.432C53.8674 212.577 53.911 218.014 50.1614 220.219L39.9152 226.245C36.1657 228.45 31.4352 225.769 31.4003 221.419L31.305 209.533Z" fill="white"/>
<path d="M130.595 195.81C130.56 191.46 135.247 188.704 139.032 190.848L149.373 196.709C153.157 198.854 153.201 204.291 149.451 206.496L139.205 212.521C135.456 214.726 130.725 212.046 130.69 207.696L130.595 195.81Z" fill="white"/>
<path d="M107.185 262.003C107.151 257.653 111.838 254.897 115.622 257.042L125.963 262.902C129.748 265.047 129.791 270.484 126.042 272.689L115.796 278.715C112.046 280.92 107.316 278.239 107.281 273.889L107.185 262.003Z" fill="white"/>
<path d="M92.6124 304.605C90.6506 300.723 93.6273 296.172 97.9705 296.415L109.839 297.077C114.182 297.319 116.634 302.172 114.253 305.812L107.745 315.759C105.364 319.399 99.9349 319.097 97.9732 315.214L92.6124 304.605Z" fill="white"/>
<path d="M304.959 102.17C304.924 97.8202 309.611 95.0639 313.395 97.2085L323.737 103.069C327.521 105.214 327.565 110.651 323.815 112.856L313.569 118.882C309.819 121.087 305.089 118.406 305.054 114.056L304.959 102.17Z" fill="white"/>
<path d="M219.391 127.194C219.357 122.845 224.044 120.088 227.828 122.233L238.169 128.094C241.954 130.238 241.997 135.675 238.248 137.881L228.002 143.906C224.252 146.111 219.522 143.43 219.487 139.081L219.391 127.194Z" fill="white"/>
<path d="M261.368 195.81C261.333 191.46 266.02 188.704 269.805 190.848L280.146 196.709C283.93 198.854 283.974 204.291 280.224 206.496L269.978 212.521C266.229 214.726 261.498 212.046 261.463 207.696L261.368 195.81Z" fill="white"/>
<path d="M323.525 181.279C323.49 176.93 328.177 174.173 331.961 176.318L342.303 182.179C346.087 184.323 346.131 189.76 342.381 191.965L332.135 197.991C328.385 200.196 323.655 197.515 323.62 193.166L323.525 181.279Z" fill="white"/>
<path d="M183.873 82.7963C183.838 78.4465 188.525 75.6902 192.309 77.8349L202.651 83.6955C206.435 85.8402 206.479 91.2774 202.729 93.4824L192.483 99.5081C188.734 101.713 184.003 99.0323 183.968 94.6825L183.873 82.7963Z" fill="white"/>
<path d="M242.801 233.75C242.766 229.4 247.453 226.644 251.238 228.788L261.579 234.649C265.363 236.794 265.407 242.231 261.658 244.436L251.411 250.462C247.662 252.667 242.931 249.986 242.896 245.636L242.801 233.75Z" fill="white"/>
<path d="M212.126 317.703C212.091 313.353 216.778 310.596 220.563 312.741L230.904 318.602C234.689 320.746 234.732 326.184 230.983 328.389L220.737 334.414C216.987 336.619 212.256 333.939 212.222 329.589L212.126 317.703Z" fill="white"/>
</svg>
