<svg width="110" height="110" viewBox="0 0 110 110" fill="none" xmlns="http://www.w3.org/2000/svg">
<mask id="path-1-outside-1_36_1575" maskUnits="userSpaceOnUse" x="-21.6596" y="-21.8636" width="153.61" height="153.61" fill="black">
<rect fill="white" x="-21.6596" y="-21.8636" width="153.61" height="153.61"/>
<path fill-rule="evenodd" clip-rule="evenodd" d="M105.503 40.0578C109.708 54.286 107.821 70.1338 99.228 83.3346L73.685 64.9042C82.0789 53.406 93.1879 45.0431 105.503 40.0578ZM104.792 37.8364C92.0205 42.972 80.4967 51.6251 71.7992 63.5435L57.3613 53.1259L86.4112 12.8643C86.5161 12.9416 86.6207 13.0193 86.7252 13.0975C95.4161 19.6012 101.502 28.2935 104.792 37.8364ZM84.5094 11.526L55.4756 51.7652L42.3193 42.2724C50.7515 30.177 55.1846 16.4529 55.8782 2.68637C65.7858 2.76149 75.7528 5.64713 84.5094 11.526ZM54.1149 53.651L40.9609 44.1598C31.6774 56.6601 19.2602 65.5059 5.57532 70.399C8.64124 80.2886 14.6673 89.3577 23.445 96.1578L54.1149 53.651ZM25.3141 97.5416C34.956 104.359 46.1628 107.453 57.1802 107.078C57.4178 92.6537 61.7437 78.1666 70.4567 65.4423L56.0007 55.0117L25.3141 97.5416ZM53.5475 2.72051C52.8505 16.0037 48.5614 29.2395 40.4332 40.9115L14.6479 22.3062C24.4769 9.99218 38.8363 3.26319 53.5475 2.72051ZM39.075 42.799L13.2369 24.1556C3.64478 37.3139 1.09591 53.4997 4.9348 68.1578C18.1356 63.4068 30.1109 54.8583 39.075 42.799ZM97.9163 85.2557L72.343 66.8034C63.9537 79.0757 59.7701 93.0374 59.5087 106.947C73.9611 105.811 87.8712 98.6966 97.2406 86.179C97.4697 85.8729 97.6949 85.5651 97.9163 85.2557Z"/>
</mask>
<path fill-rule="evenodd" clip-rule="evenodd" d="M105.503 40.0578C109.708 54.286 107.821 70.1338 99.228 83.3346L73.685 64.9042C82.0789 53.406 93.1879 45.0431 105.503 40.0578ZM104.792 37.8364C92.0205 42.972 80.4967 51.6251 71.7992 63.5435L57.3613 53.1259L86.4112 12.8643C86.5161 12.9416 86.6207 13.0193 86.7252 13.0975C95.4161 19.6012 101.502 28.2935 104.792 37.8364ZM84.5094 11.526L55.4756 51.7652L42.3193 42.2724C50.7515 30.177 55.1846 16.4529 55.8782 2.68637C65.7858 2.76149 75.7528 5.64713 84.5094 11.526ZM54.1149 53.651L40.9609 44.1598C31.6774 56.6601 19.2602 65.5059 5.57532 70.399C8.64124 80.2886 14.6673 89.3577 23.445 96.1578L54.1149 53.651ZM25.3141 97.5416C34.956 104.359 46.1628 107.453 57.1802 107.078C57.4178 92.6537 61.7437 78.1666 70.4567 65.4423L56.0007 55.0117L25.3141 97.5416ZM53.5475 2.72051C52.8505 16.0037 48.5614 29.2395 40.4332 40.9115L14.6479 22.3062C24.4769 9.99218 38.8363 3.26319 53.5475 2.72051ZM39.075 42.799L13.2369 24.1556C3.64478 37.3139 1.09591 53.4997 4.9348 68.1578C18.1356 63.4068 30.1109 54.8583 39.075 42.799ZM97.9163 85.2557L72.343 66.8034C63.9537 79.0757 59.7701 93.0374 59.5087 106.947C73.9611 105.811 87.8712 98.6966 97.2406 86.179C97.4697 85.8729 97.6949 85.5651 97.9163 85.2557Z" fill="#FF5E00"/>
<path d="M99.228 83.3346L97.8674 85.2204L99.8459 86.648L101.177 84.6033L99.228 83.3346ZM105.503 40.0578L107.733 39.3986L107.006 36.9404L104.63 37.9023L105.503 40.0578ZM73.685 64.9042L71.8068 63.5331L70.4281 65.4217L72.3243 66.7899L73.685 64.9042ZM71.7992 63.5435L70.4385 65.4292L72.3142 66.7826L73.6776 64.9143L71.7992 63.5435ZM104.792 37.8364L105.659 39.9939L107.711 39.169L106.99 37.0786L104.792 37.8364ZM57.3613 53.1259L55.4756 51.7653L54.1149 53.651L56.0007 55.0117L57.3613 53.1259ZM86.4112 12.8643L87.7908 10.9923L85.8998 9.59886L84.5255 11.5037L86.4112 12.8643ZM86.7252 13.0975L88.1184 11.2357L88.1184 11.2356L86.7252 13.0975ZM55.4756 51.7652L54.1149 53.651L56.0007 55.0117L57.3613 53.1259L55.4756 51.7652ZM84.5094 11.526L86.3951 12.8866L87.8025 10.936L85.8055 9.59532L84.5094 11.526ZM42.3193 42.2724L40.4117 40.9425L39.1032 42.8194L40.9586 44.1581L42.3193 42.2724ZM55.8782 2.68637L55.8958 0.361029L53.6679 0.344135L53.5558 2.56935L55.8782 2.68637ZM40.9609 44.1598L42.3216 42.274L40.4616 40.932L39.0941 42.7733L40.9609 44.1598ZM54.1149 53.651L56.0007 55.0117L57.3613 53.1259L55.4756 51.7652L54.1149 53.651ZM5.57532 70.399L4.7924 68.2093L2.69446 68.9595L3.3542 71.0876L5.57532 70.399ZM23.445 96.1578L22.0209 97.9961L23.923 99.4697L25.3308 97.5185L23.445 96.1578ZM57.1802 107.078L57.2593 109.402L59.4689 109.327L59.5053 107.117L57.1802 107.078ZM25.3141 97.5416L23.4284 96.1809L22.0546 98.0849L23.9717 99.4403L25.3141 97.5416ZM70.4567 65.4423L72.3753 66.7561L73.6572 64.8841L71.8173 63.5565L70.4567 65.4423ZM56.0007 55.0117L57.3614 53.1259L55.4756 51.7652L54.1149 53.651L56.0007 55.0117ZM40.4332 40.9115L39.0726 42.7973L40.9902 44.1809L42.3415 42.2404L40.4332 40.9115ZM53.5475 2.72051L55.8697 2.84237L56.003 0.302947L53.4618 0.396688L53.5475 2.72051ZM14.6479 22.3062L12.8305 20.8556L11.3076 22.7636L13.2873 24.192L14.6479 22.3062ZM13.2369 24.1556L14.5975 22.2699L12.7209 20.9158L11.3578 22.7858L13.2369 24.1556ZM39.075 42.799L40.9413 44.1863L42.3484 42.2933L40.4357 40.9132L39.075 42.799ZM4.9348 68.1578L2.68526 68.747L3.32954 71.207L5.72228 70.3458L4.9348 68.1578ZM72.343 66.8034L73.7037 64.9176L71.7694 63.522L70.4233 65.4911L72.343 66.8034ZM97.9163 85.2557L99.8075 86.6088L101.155 84.7252L99.277 83.3699L97.9163 85.2557ZM59.5087 106.947L57.1837 106.904L57.1355 109.466L59.6909 109.266L59.5087 106.947ZM97.2406 86.179L95.3789 84.7855L95.3789 84.7856L97.2406 86.179ZM101.177 84.6033C110.156 70.8103 112.124 54.2543 107.733 39.3986L103.273 40.7169C107.293 54.3176 105.487 69.4574 97.2792 82.066L101.177 84.6033ZM72.3243 66.7899L97.8674 85.2204L100.589 81.4489L75.0457 63.0184L72.3243 66.7899ZM104.63 37.9023C91.9256 43.0454 80.4638 51.6745 71.8068 63.5331L75.5632 66.2753C83.694 55.1375 94.4503 47.0408 106.375 42.2132L104.63 37.9023ZM73.6776 64.9143C82.1109 53.358 93.28 44.9719 105.659 39.9939L103.924 35.6789C90.7611 40.9721 78.8826 49.8923 69.9208 62.1727L73.6776 64.9143ZM56.0007 55.0117L70.4385 65.4292L73.1599 61.6577L58.722 51.2401L56.0007 55.0117ZM84.5255 11.5037L55.4756 51.7653L59.2471 54.4865L88.297 14.225L84.5255 11.5037ZM88.1184 11.2356C88.0095 11.1541 87.9003 11.073 87.7908 10.9923L85.0317 14.7363C85.1319 14.8101 85.2319 14.8845 85.3319 14.9593L88.1184 11.2356ZM106.99 37.0786C103.554 27.1093 97.1938 18.0272 88.1184 11.2357L85.3319 14.9593C93.6383 21.1753 99.451 29.4777 102.593 38.5942L106.99 37.0786ZM57.3613 53.1259L86.3951 12.8866L82.6236 10.1653L53.5898 50.4046L57.3613 53.1259ZM40.9586 44.1581L54.1149 53.651L56.8362 49.8795L43.6799 40.3866L40.9586 44.1581ZM53.5558 2.56935C52.8834 15.9139 48.5873 29.2152 40.4117 40.9425L44.2269 43.6022C52.9158 31.1387 57.4858 16.9918 58.2007 2.80338L53.5558 2.56935ZM85.8055 9.59532C76.6586 3.45444 66.2444 0.4395 55.8958 0.361029L55.8606 5.0117C65.3272 5.08348 74.8469 7.83982 83.2132 13.4566L85.8055 9.59532ZM39.6003 46.0456L52.7543 55.5368L55.4756 51.7652L42.3216 42.274L39.6003 46.0456ZM6.35824 72.5886C20.4619 67.5458 33.2616 58.4273 42.8278 45.5463L39.0941 42.7733C30.0933 54.893 18.0585 63.466 4.7924 68.2093L6.35824 72.5886ZM24.8692 94.3195C16.481 87.8212 10.7257 79.1591 7.79644 69.7104L3.3542 71.0876C6.55682 81.4181 12.8535 90.8941 22.0209 97.9961L24.8692 94.3195ZM25.3308 97.5185L56.0007 55.0117L52.2292 52.2904L21.5593 94.7972L25.3308 97.5185ZM57.1011 104.754C46.5733 105.113 35.8693 102.156 26.6566 95.6428L23.9717 99.4403C34.0426 106.561 45.7522 109.794 57.2593 109.402L57.1011 104.754ZM68.538 64.1285C59.5592 77.2409 55.1 92.1743 54.8551 107.04L59.5053 107.117C59.7356 93.1331 63.9281 79.0923 72.3753 66.7561L68.538 64.1285ZM54.64 56.8974L69.096 67.3281L71.8173 63.5565L57.3614 53.1259L54.64 56.8974ZM54.1149 53.651L23.4284 96.1809L27.1999 98.9022L57.8865 56.3723L54.1149 53.651ZM42.3415 42.2404C50.7249 30.2018 55.1506 16.5455 55.8697 2.84237L51.2253 2.59865C50.5503 15.4619 46.3979 28.2771 38.525 39.5826L42.3415 42.2404ZM13.2873 24.192L39.0726 42.7973L41.7939 39.0257L16.0086 20.4205L13.2873 24.192ZM53.4618 0.396688C38.1016 0.963303 23.0991 7.99074 12.8305 20.8556L16.4654 23.7569C25.8547 11.9936 39.571 5.56307 53.6332 5.04433L53.4618 0.396688ZM11.8762 26.0414L37.7143 44.6848L40.4357 40.9132L14.5975 22.2699L11.8762 26.0414ZM7.18433 67.5687C3.51488 53.5576 5.95228 38.0961 15.116 25.5255L11.3578 22.7858C1.33727 36.5317 -1.32307 53.4419 2.68526 68.747L7.18433 67.5687ZM37.2087 41.4117C28.5262 53.0921 16.9315 61.3687 4.14732 65.9698L5.72228 70.3458C19.3398 65.4448 31.6955 56.6244 40.9413 44.1863L37.2087 41.4117ZM70.9824 68.6892L96.5557 87.1415L99.277 83.3699L73.7037 64.9176L70.9824 68.6892ZM61.8337 106.991C62.0869 93.5198 66.1374 80.0018 74.2627 68.1157L70.4233 65.4911C61.7699 78.1495 57.4534 92.555 57.1837 106.904L61.8337 106.991ZM95.3789 84.7856C86.4271 96.7454 73.1405 103.543 59.3264 104.629L59.6909 109.266C74.7818 108.079 89.3154 100.648 99.1023 87.5724L95.3789 84.7856ZM96.0252 83.9026C95.8134 84.1985 95.598 84.4928 95.3789 84.7855L99.1023 87.5725C99.3414 87.253 99.5765 86.9318 99.8075 86.6088L96.0252 83.9026Z" fill="white" mask="url(#path-1-outside-1_36_1575)"/>
</svg>
