<svg width="361" height="361" viewBox="0 0 361 361" fill="none" xmlns="http://www.w3.org/2000/svg">
<mask id="path-1-outside-1_254_35" maskUnits="userSpaceOnUse" x="0.00877346" y="-0.177384" width="361" height="361" fill="black">
<rect fill="white" x="0.00877346" y="-0.177384" width="361" height="361"/>
<path fill-rule="evenodd" clip-rule="evenodd" d="M306.709 57.3423C337.27 88.7031 356.217 131.369 356.753 178.325L185.435 178.619L306.709 57.3423ZM304.222 54.8405L182.1 176.966L181.801 4.07278C182.255 4.07647 182.71 4.08187 183.166 4.08901C230.419 4.82995 273.038 24.0865 304.222 54.8405ZM176.904 182.162L4.012 182.459C4.52362 229.828 23.7708 272.837 54.7785 304.29L176.904 182.162ZM57.28 306.777C88.3975 337.11 130.718 356.072 177.601 356.807C178.029 356.814 178.456 356.819 178.884 356.823L178.587 185.467L57.28 306.777ZM178.273 4.07885L178.571 176.138L56.9228 54.4928C88.3194 23.7203 131.135 4.62322 178.273 4.07885ZM54.4281 56.987L176.079 178.635L4.00857 178.931C4.01225 178.516 4.01738 178.099 4.02395 177.683C4.76661 130.614 23.8804 88.1415 54.4281 56.987ZM303.847 306.4L182.113 184.669L182.411 356.818C229.583 356.295 272.432 337.192 303.847 306.4ZM184.581 182.148L306.341 303.906C336.887 272.752 356 230.28 356.743 183.213C356.75 182.759 356.755 182.306 356.759 181.852L184.581 182.148Z"/>
</mask>
<path fill-rule="evenodd" clip-rule="evenodd" d="M306.709 57.3423C337.27 88.7031 356.217 131.369 356.753 178.325L185.435 178.619L306.709 57.3423ZM304.222 54.8405L182.1 176.966L181.801 4.07278C182.255 4.07647 182.71 4.08187 183.166 4.08901C230.419 4.82995 273.038 24.0865 304.222 54.8405ZM176.904 182.162L4.012 182.459C4.52362 229.828 23.7708 272.837 54.7785 304.29L176.904 182.162ZM57.28 306.777C88.3975 337.11 130.718 356.072 177.601 356.807C178.029 356.814 178.456 356.819 178.884 356.823L178.587 185.467L57.28 306.777ZM178.273 4.07885L178.571 176.138L56.9228 54.4928C88.3194 23.7203 131.135 4.62322 178.273 4.07885ZM54.4281 56.987L176.079 178.635L4.00857 178.931C4.01225 178.516 4.01738 178.099 4.02395 177.683C4.76661 130.614 23.8804 88.1415 54.4281 56.987ZM303.847 306.4L182.113 184.669L182.411 356.818C229.583 356.295 272.432 337.192 303.847 306.4ZM184.581 182.148L306.341 303.906C336.887 272.752 356 230.28 356.743 183.213C356.75 182.759 356.755 182.306 356.759 181.852L184.581 182.148Z" fill="#FF5E00"/>
<path d="M356.753 178.325L356.76 181.852L360.322 181.846L360.281 178.284L356.753 178.325ZM306.71 57.3424L309.236 54.8805L306.742 52.3211L304.215 54.848L306.71 57.3424ZM185.435 178.619L182.941 176.125L176.904 182.162L185.441 182.147L185.435 178.619ZM182.1 176.966L178.573 176.972L178.587 185.468L184.595 179.46L182.1 176.966ZM304.223 54.8406L306.717 57.3349L309.229 54.8231L306.7 52.3289L304.223 54.8406ZM181.801 4.07286L181.83 0.545343L178.267 0.516412L178.273 4.07897L181.801 4.07286ZM183.166 4.0891L183.221 0.561895L183.221 0.561895L183.166 4.0891ZM4.01221 182.459L4.00614 178.932L0.446335 178.938L0.484782 182.497L4.01221 182.459ZM176.904 182.162L179.399 184.656L185.435 178.619L176.898 178.634L176.904 182.162ZM54.7788 304.29L52.2666 306.766L54.761 309.296L57.2732 306.784L54.7788 304.29ZM177.601 356.807L177.656 353.28L177.656 353.28L177.601 356.807ZM57.2802 306.777L54.7858 304.283L52.2594 306.809L54.8178 309.303L57.2802 306.777ZM178.884 356.823L178.854 360.35L182.418 360.381L182.411 356.817L178.884 356.823ZM178.587 185.468L182.115 185.461L182.1 176.966L176.093 182.973L178.587 185.468ZM178.571 176.138L176.077 178.633L182.113 184.669L182.099 176.132L178.571 176.138ZM178.273 4.07893L181.801 4.07283L181.795 0.510396L178.233 0.551535L178.273 4.07893ZM56.923 54.4929L54.4537 51.9736L51.909 54.4678L54.4286 56.9874L56.923 54.4929ZM176.079 178.636L176.086 182.163L184.581 182.149L178.574 176.141L176.079 178.636ZM54.4283 56.9871L56.9227 54.4926L54.4036 51.9736L51.9095 54.5173L54.4283 56.9871ZM4.00878 178.932L0.481285 178.9L0.44976 182.465L4.01485 182.459L4.00878 178.932ZM4.02416 177.683L0.496961 177.627L0.496961 177.627L4.02416 177.683ZM182.113 184.669L184.608 182.175L178.571 176.138L178.586 184.676L182.113 184.669ZM303.847 306.4L306.316 308.92L308.861 306.425L306.341 303.906L303.847 306.4ZM182.411 356.818L178.884 356.824L178.89 360.385L182.451 360.346L182.411 356.818ZM306.342 303.906L303.847 306.401L306.366 308.92L308.86 306.376L306.342 303.906ZM184.581 182.149L184.575 178.621L176.079 178.636L182.087 184.643L184.581 182.149ZM356.743 183.213L353.216 183.158L353.216 183.158L356.743 183.213ZM356.759 181.852L360.287 181.881L360.316 178.319L356.753 178.325L356.759 181.852ZM360.281 178.284C359.734 130.387 340.403 86.8643 309.236 54.8805L304.183 59.8044C334.136 90.5421 352.7 132.35 353.226 178.365L360.281 178.284ZM185.441 182.147L356.76 181.852L356.747 174.797L185.429 175.092L185.441 182.147ZM304.215 54.848L182.941 176.125L187.93 181.114L309.204 59.8368L304.215 54.848ZM184.595 179.46L306.717 57.3349L301.728 52.3462L179.606 174.471L184.595 179.46ZM178.273 4.07897L178.573 176.972L185.628 176.96L185.329 4.06675L178.273 4.07897ZM183.221 0.561895C182.757 0.554614 182.293 0.549107 181.83 0.545343L181.772 7.60038C182.218 7.604 182.664 7.6093 183.111 7.6163L183.221 0.561895ZM306.7 52.3289C274.895 20.9629 231.418 1.31762 183.221 0.561895L183.111 7.6163C229.42 8.34243 271.182 27.2103 301.746 57.3522L306.7 52.3289ZM4.01828 185.987L176.91 185.689L176.898 178.634L4.00614 178.932L4.01828 185.987ZM57.2909 301.813C26.8991 270.986 8.04101 228.84 7.53964 182.421L0.484782 182.497C1.00666 230.815 20.643 274.689 52.2666 306.766L57.2909 301.813ZM57.2732 306.784L179.399 184.656L174.41 179.667L52.2843 301.795L57.2732 306.784ZM177.656 353.28C131.71 352.559 90.2407 333.981 59.7426 304.251L54.8178 309.303C86.5547 340.24 129.727 359.584 177.546 360.334L177.656 353.28ZM178.914 353.295C178.495 353.292 178.076 353.286 177.656 353.28L177.546 360.334C177.982 360.341 178.418 360.346 178.854 360.35L178.914 353.295ZM175.06 185.474L175.356 356.829L182.411 356.817L182.115 185.461L175.06 185.474ZM176.093 182.973L54.7858 304.283L59.7746 309.272L181.082 187.962L176.093 182.973ZM182.099 176.132L181.801 4.07283L174.746 4.08504L175.043 176.144L182.099 176.132ZM54.4286 56.9874L176.077 178.633L181.065 173.644L59.4174 51.9985L54.4286 56.9874ZM178.233 0.551535C130.15 1.10682 86.4739 20.59 54.4537 51.9736L59.3922 57.0122C90.1654 26.8508 132.121 8.1398 178.314 7.60633L178.233 0.551535ZM178.574 176.141L56.9227 54.4926L51.9339 59.4815L173.585 181.13L178.574 176.141ZM4.01485 182.459L176.086 182.163L176.073 175.108L4.00271 175.404L4.01485 182.459ZM0.496961 177.627C0.490259 178.052 0.485036 178.476 0.481285 178.9L7.53628 178.963C7.53988 178.555 7.54491 178.147 7.55135 177.738L0.496961 177.627ZM51.9095 54.5173C20.754 86.2917 1.25445 129.619 0.496961 177.627L7.55135 177.738C8.27918 131.61 27.0072 89.9915 56.9471 59.4568L51.9095 54.5173ZM179.619 187.164L301.353 308.895L306.341 303.906L184.608 182.175L179.619 187.164ZM185.939 356.812L185.641 184.663L178.586 184.676L178.884 356.824L185.939 356.812ZM301.378 303.881C270.586 334.062 228.599 352.778 182.372 353.291L182.451 360.346C230.568 359.812 274.277 340.323 306.316 308.92L301.378 303.881ZM308.836 301.412L187.076 179.654L182.087 184.643L303.847 306.401L308.836 301.412ZM353.216 183.158C352.488 229.285 333.761 270.902 303.823 301.436L308.86 306.376C340.014 274.602 359.513 231.276 360.27 183.269L353.216 183.158ZM353.232 181.823C353.228 182.268 353.223 182.713 353.216 183.158L360.27 183.269C360.277 182.806 360.283 182.344 360.287 181.881L353.232 181.823ZM184.587 185.676L356.765 185.38L356.753 178.325L184.575 178.621L184.587 185.676Z" fill="white" mask="url(#path-1-outside-1_254_35)"/>
</svg>
