<svg width="361" height="361" viewBox="0 0 361 361" fill="none" xmlns="http://www.w3.org/2000/svg">
<mask id="path-1-outside-1_254_160" maskUnits="userSpaceOnUse" x="0.236313" y="0.0571133" width="361" height="361" fill="black">
<rect fill="white" x="0.236313" y="0.0571133" width="361" height="361"/>
<path d="M183.401 4.31702C280.801 5.84428 358.514 86.041 356.977 183.441C355.441 280.842 275.236 358.562 177.835 357.035C80.4348 355.508 2.72191 275.311 4.25873 177.911C5.79554 80.5103 86.0001 2.78977 183.401 4.31702Z"/>
</mask>
<path d="M183.401 4.31702C280.801 5.84428 358.514 86.041 356.977 183.441C355.441 280.842 275.236 358.562 177.835 357.035C80.4348 355.508 2.72191 275.311 4.25873 177.911C5.79554 80.5103 86.0001 2.78977 183.401 4.31702Z" fill="#FF5E00"/>
<path d="M183.345 7.84422C278.798 9.34093 354.956 87.9335 353.45 183.386L360.505 183.497C362.072 84.1485 282.805 2.34762 183.456 0.789824L183.345 7.84422ZM353.45 183.386C351.944 278.838 273.343 355.005 177.891 353.508L177.78 360.562C277.129 362.12 358.937 282.845 360.505 183.497L353.45 183.386ZM177.891 353.508C82.4383 352.011 6.27985 273.419 7.78592 177.966L0.731532 177.855C-0.836021 277.204 78.4314 359.004 177.78 360.562L177.891 353.508ZM7.78592 177.966C9.292 82.5138 87.8927 6.34752 183.345 7.84422L183.456 0.789824C84.1075 -0.767971 2.29908 78.5068 0.731532 177.855L7.78592 177.966Z" fill="white" mask="url(#path-1-outside-1_254_160)"/>
<path d="M30.8979 279.89C30.8979 280.006 31.1024 278.257 31.2839 277.757C34.7062 268.346 36.3084 258.396 39.6099 248.957C50.5583 217.653 62.4146 185.977 80.2288 157.83C94.8534 134.724 109.889 111.922 127.17 90.6714C135.139 80.8716 143.532 71.7874 152.994 63.396C160.983 56.3107 170.576 48.3324 180.765 44.6672C197.002 38.8267 220.706 34.2461 235.463 46.2111C243.121 52.4204 245.022 61.6087 241.933 70.8765C237.32 84.7155 226.124 94.2358 214.474 102.232C202.234 110.633 187.663 117.32 172.495 116.679C157.078 116.027 141.287 110.119 126.913 104.952C113.817 100.245 100.076 97.6749 86.2574 100.431C74.03 102.87 61.0959 108.426 51.8875 116.936C43.0604 125.093 36.9483 136.017 34.5004 147.777C32.2 158.828 30.8848 172.981 37.0184 183.158C43.9975 194.737 58.8441 193.296 69.7525 188.984C87.4539 181.987 105.191 171.625 118.569 157.959C126.188 150.176 132.733 141.392 140.22 133.477C148.171 125.072 156.847 117.52 166.54 111.183C180.112 102.308 195.449 97.6477 211.57 101.405C240.063 108.046 264.871 124.817 289.003 140.572C297.033 145.814 305.42 151.471 315.304 152.188C322.932 152.741 331.356 149.182 338.793 151.122C348.804 153.733 336.714 177.091 334.713 181.301C326.417 198.761 314.967 213.75 300.453 226.478C283.1 241.697 246.882 268.855 226.972 242.652C218.263 231.192 217.47 215.747 219.767 202.033C220.999 194.674 222.581 187.376 223.7 179.996C224.394 175.42 225.414 169.907 223.81 165.385C220.714 156.65 205.964 155.264 198.538 154.632C181.428 153.176 164.317 156.531 148.417 162.83C132.47 169.147 116.085 179.909 106.677 194.608C98.5543 207.3 94.339 228.122 104.894 240.925C117.136 255.773 140.215 259.121 158.085 260.26C179.331 261.615 200.662 261.21 221.899 262.907C237.925 264.187 254.397 266.521 269.263 272.997C275.08 275.531 286.16 280.798 286.577 288.473C286.981 295.915 274.685 299.837 269.355 301.761C252.536 307.835 235.802 313.644 218.48 318.156C204.05 321.915 189.859 324.362 174.957 325.14C162.559 325.788 147.506 327.992 136.434 320.803C123.844 312.628 124.136 295.758 128.347 283.124C134.236 265.457 147.907 251.836 162.239 240.631C189.907 218.998 224.104 207.044 254.1 189.094C273.003 177.782 297.217 159.985 300.086 136.253C303.426 108.62 279.09 83.9489 252.152 81.2794C232.655 79.3473 211.847 87.4727 193.705 93.5202C179.24 98.3418 164.193 104.917 148.785 105.559C132.094 106.254 113.455 98.1859 105.611 82.8968C98.1976 68.4467 103.193 50.0398 100.299 34.4113C99.9662 32.6118 98.8138 30.5937 98.7187 28.7872C98.5976 26.4848 97.4151 26.18 96.4029 24.1555" stroke="white" stroke-width="2.42171" stroke-linecap="round"/>
</svg>
