<svg width="361" height="361" viewBox="0 0 361 361" fill="none" xmlns="http://www.w3.org/2000/svg">
<mask id="path-1-outside-1_254_77" maskUnits="userSpaceOnUse" x="0.251449" y="-0.171891" width="361" height="361" fill="black">
<rect fill="white" x="0.251449" y="-0.171891" width="361" height="361"/>
<path d="M183.416 4.08802C280.817 5.61527 358.529 85.812 356.993 183.212C355.456 280.613 275.251 358.333 177.851 356.806C80.4501 355.279 2.73721 275.082 4.27402 177.682C5.81084 80.2813 86.0154 2.56077 183.416 4.08802Z"/>
</mask>
<path d="M183.416 4.08802C280.817 5.61527 358.529 85.812 356.993 183.212C355.456 280.613 275.251 358.333 177.851 356.806C80.4501 355.279 2.73721 275.082 4.27402 177.682C5.81084 80.2813 86.0154 2.56077 183.416 4.08802Z" fill="#FF5E00"/>
<path d="M183.361 7.61522C278.813 9.11192 354.971 87.7045 353.465 183.157L360.52 183.268C362.087 83.9195 282.82 2.11862 183.471 0.56082L183.361 7.61522ZM353.465 183.157C351.959 278.609 273.358 354.775 177.906 353.279L177.795 360.333C277.144 361.891 358.952 282.616 360.52 183.268L353.465 183.157ZM177.906 353.279C82.4534 351.782 6.29498 273.19 7.80106 177.737L0.746668 177.626C-0.820884 276.975 78.4465 358.775 177.795 360.333L177.906 353.279ZM7.80106 177.737C9.30714 82.2848 87.9078 6.11851 183.361 7.61522L183.471 0.56082C84.1227 -0.996975 2.31422 78.2778 0.746668 177.626L7.80106 177.737Z" fill="white" mask="url(#path-1-outside-1_254_77)"/>
</svg>
