<svg width="148" height="75" viewBox="0 0 148 75" fill="none" xmlns="http://www.w3.org/2000/svg">
<g clip-path="url(#clip0_254_151)">
<rect x="0.182129" y="0.90918" width="147.818" height="73.9091" rx="9.23864" fill="#FF5E00"/>
<path d="M-2.44798 57.3633C-4.11397 57.3633 7.06637 57.1863 7.74291 57.1734C11.3875 57.104 15.1831 57.4273 17.8316 60.4338C19.9506 62.8392 20.0661 66.5252 22.0643 68.9068C24.8714 72.2526 30.8904 70.5306 33.9158 68.7063C38.3441 66.0363 43.5359 62.2871 45.9267 57.3633C48.265 52.5477 44.6192 50.4384 40.4292 49.5234C33.6119 48.0348 26.3112 48.8271 19.8733 45.7354C14.3541 43.0849 11.823 36.8446 12.9018 30.5938C14.3523 22.1897 19.9612 16.4481 28.1494 15.6632C35.8473 14.9253 42.5192 22.0016 47.0023 27.7765C51.6672 33.7855 56.2683 41.9635 64.69 38.9085C74.1549 35.475 81.4784 27.0528 90.4247 22.4374C96.5995 19.2519 104.062 18.1851 109.875 22.8489C115.786 27.5912 115.742 36.1641 112.793 42.7598C110.248 48.4518 104.765 52.3763 98.9897 53.417C96.5841 53.8505 93.9765 53.958 91.58 53.3959C87.1929 52.367 84.5287 48.7791 82.5569 44.7013C78.9084 37.1561 78.0015 28.8644 73.2151 21.8254C69.5776 16.476 63.4288 14.7987 57.9077 18.2484C42.7506 27.7189 49.9363 48.2772 61.8815 56.6669C67.7792 60.8092 75.0814 60.5921 81.8598 60.5921C85.442 60.5921 88.8647 60.5625 92.2971 61.8161C95.9453 63.1486 99.4351 65.0809 102.904 66.8598C107.61 69.2738 112.572 71.5293 117.892 70.1941C123.792 68.7138 127.711 63.8422 130.989 58.7456C133.177 55.3429 134.6 51.6491 133.439 47.5609C132.082 42.784 129.95 37.8559 127.533 33.5799C124.969 29.0444 123.987 24.6293 123.987 19.388C123.987 16.3603 123.712 13.1281 124.485 10.1764C125.126 7.73424 126.318 5.17168 126.318 2.6214C126.318 1.45548 126.943 0.426497 126.497 -0.755127" stroke="white" stroke-width="2.49642"/>
</g>
<defs>
<clipPath id="clip0_254_151">
<rect x="0.182129" y="0.90918" width="147.818" height="73.9091" rx="9.23864" fill="white"/>
</clipPath>
</defs>
</svg>
