<svg width="149" height="75" viewBox="0 0 149 75" fill="none" xmlns="http://www.w3.org/2000/svg">
<g clip-path="url(#clip0_254_143)">
<rect x="0.88623" y="0.90918" width="147.818" height="73.9091" rx="9.23864" fill="#FF5E00"/>
<path d="M53.3185 35.9313C55.9833 33.5768 60.1976 34.9899 60.9043 38.475L64.9001 58.1813C65.6068 61.6663 62.2758 64.6095 58.9043 63.4789L39.8402 57.0863C36.4688 55.9557 35.5854 51.5994 38.2502 49.2449L53.3185 35.9313Z" fill="white"/>
<path d="M76.6508 33.2966C75.8748 29.8264 79.1464 26.8174 82.5398 27.8805L93.4482 31.2979C96.8415 32.361 97.8115 36.6988 95.1942 39.106L86.7804 46.8442C84.1631 49.2514 79.9214 47.9225 79.1454 44.4523L76.6508 33.2966Z" fill="white"/>
<path d="M135.482 48.1512C138.982 47.5224 141.85 50.9183 140.644 54.2637L125.049 97.5447C123.843 100.89 119.468 101.676 117.174 98.9594L87.4891 63.8126C85.1946 61.096 86.7014 56.9142 90.2014 56.2855L135.482 48.1512Z" fill="white"/>
<path d="M102 -28.7051C101.227 -32.1759 104.501 -35.1823 107.894 -34.1165L170.481 -14.4544C173.873 -13.3886 174.84 -9.05002 172.221 -6.64492L123.899 37.7262C121.28 40.1313 117.039 38.7991 116.266 35.3282L102 -28.7051Z" fill="white"/>
<path d="M21.2485 -22.9816C21.6429 -26.5157 25.7151 -28.2975 28.5784 -26.1889L65.6229 1.09081C68.4862 3.19938 67.9932 7.6169 64.7355 9.04233L22.5883 27.4839C19.3306 28.9094 15.7514 26.2736 16.1458 22.7396L21.2485 -22.9816Z" fill="white"/>
<path d="M42.7086 76.6455C45.802 78.3992 45.837 82.844 42.7715 84.6462L3.11207 107.961C0.0466065 109.764 -3.82018 107.571 -3.84816 104.016L-4.21004 58.0119C-4.23801 54.456 -0.406178 52.2034 2.68726 53.9571L42.7086 76.6455Z" fill="white"/>
</g>
<defs>
<clipPath id="clip0_254_143">
<rect x="0.88623" y="0.90918" width="147.818" height="73.9091" rx="9.23864" fill="white"/>
</clipPath>
</defs>
</svg>
