<svg width="204" height="204" viewBox="0 0 204 204" fill="none" xmlns="http://www.w3.org/2000/svg">
<path d="M90.6739 6.35338C97.709 2.40704 106.291 2.40704 113.326 6.35338L120.617 10.4431C123.991 12.3361 127.787 13.3531 131.656 13.401L140.015 13.5046C148.08 13.6045 155.513 17.8955 159.632 24.8306L163.901 32.0177C165.877 35.3445 168.655 38.123 171.982 40.099L179.169 44.368C186.105 48.4874 190.396 55.9196 190.495 63.9853L190.599 72.344C190.647 76.2132 191.664 80.0086 193.557 83.3833L197.647 90.674C201.593 97.709 201.593 106.291 197.647 113.326L193.557 120.617C191.664 123.991 190.647 127.787 190.599 131.656L190.495 140.015C190.396 148.08 186.105 155.513 179.169 159.632L171.982 163.901C168.655 165.877 165.877 168.655 163.901 171.982L159.632 179.169C155.513 186.105 148.08 190.396 140.015 190.495L131.656 190.599C127.787 190.647 123.991 191.664 120.617 193.557L113.326 197.647C106.291 201.593 97.709 201.593 90.6739 197.647L83.3833 193.557C80.0086 191.664 76.2132 190.647 72.344 190.599L63.9853 190.495C55.9196 190.396 48.4874 186.105 44.368 179.169L40.099 171.982C38.123 168.655 35.3445 165.877 32.0177 163.901L24.8306 159.632C17.8955 155.513 13.6045 148.08 13.5046 140.015L13.401 131.656C13.3531 127.787 12.3361 123.991 10.4431 120.617L6.35338 113.326C2.40704 106.291 2.40704 97.709 6.35338 90.6739L10.4431 83.3834C12.3361 80.0086 13.3531 76.2132 13.401 72.344L13.5046 63.9853C13.6045 55.9196 17.8955 48.4874 24.8306 44.368L32.0177 40.099C35.3445 38.123 38.123 35.3445 40.099 32.0177L44.368 24.8306C48.4874 17.8955 55.9196 13.6045 63.9853 13.5046L72.344 13.401C76.2132 13.3531 80.0086 12.3361 83.3834 10.4431L90.6739 6.35338Z" fill="#FF621F"/>
<path d="M111.467 104.662C111.053 105.058 110.862 105.631 110.957 106.193L112.379 113.961C112.499 114.62 112.217 115.286 111.659 115.666C111.112 116.061 110.384 116.109 109.787 115.793L102.702 112.146C102.455 112.016 102.182 111.947 101.902 111.939H101.468C101.318 111.961 101.171 112.008 101.036 112.081L93.9492 115.745C93.5988 115.919 93.2021 115.981 92.8133 115.919C91.8662 115.742 91.2343 114.852 91.3895 113.912L92.8133 106.144C92.9077 105.578 92.7173 105.001 92.303 104.599L86.5261 99.0728C86.043 98.6102 85.875 97.9155 86.0958 97.2887C86.3102 96.6635 86.8573 96.2072 87.518 96.1046L95.469 94.9662C96.0737 94.9047 96.6048 94.5415 96.8768 94.0047L100.38 86.9157C100.464 86.7578 100.571 86.6126 100.7 86.4894L100.844 86.3789C100.919 86.2968 101.006 86.2289 101.102 86.1737L101.276 86.1105L101.548 86H102.222C102.823 86.0616 103.353 86.4168 103.629 86.9473L107.179 94.0047C107.435 94.521 107.933 94.8794 108.507 94.9662L116.458 96.1046C117.13 96.1993 117.692 96.6572 117.914 97.2887C118.124 97.9218 117.943 98.6165 117.45 99.0728L111.467 104.662Z" fill="white"/>
<path d="M160.943 107.747C161.032 106.899 161.243 106.149 161.577 105.496C161.922 104.845 162.377 104.301 162.941 103.865C163.516 103.443 164.2 103.14 164.991 102.958C165.794 102.776 166.691 102.737 167.682 102.84L168.433 102.919C169.376 103.018 170.204 103.237 170.917 103.577C171.629 103.916 172.217 104.352 172.68 104.883C173.142 105.426 173.469 106.051 173.661 106.759C173.863 107.48 173.92 108.258 173.833 109.093C173.746 109.929 173.529 110.672 173.184 111.324C172.849 111.989 172.4 112.533 171.837 112.957C171.285 113.394 170.619 113.704 169.839 113.888C169.072 114.074 168.217 114.117 167.274 114.019L166.522 113.94C165.531 113.837 164.668 113.614 163.931 113.271C163.195 112.929 162.59 112.486 162.116 111.941C161.641 111.409 161.302 110.783 161.1 110.062C160.908 109.354 160.856 108.582 160.943 107.747ZM162.913 107.953C162.809 108.943 163.06 109.772 163.666 110.438C164.271 111.117 165.302 111.532 166.758 111.684L167.51 111.763C168.846 111.903 169.881 111.703 170.613 111.164C171.345 110.625 171.762 109.866 171.864 108.888C171.969 107.885 171.724 107.051 171.13 106.386C170.536 105.721 169.558 105.317 168.198 105.175L167.446 105.096C166.014 104.947 164.926 105.135 164.184 105.66C163.44 106.198 163.016 106.962 162.913 107.953Z" fill="white"/>
<path d="M169.416 120.378L170.54 116.675L172.435 117.251L169.557 126.723L167.663 126.148L168.788 122.445L158.626 119.358L159.254 117.291L169.416 120.378Z" fill="white"/>
<path d="M151.991 132.955C152.8 131.663 153.726 130.884 154.771 130.618C155.825 130.358 156.963 130.553 158.184 131.204L156.98 133.126C156.258 132.787 155.632 132.679 155.103 132.801C154.567 132.932 154.089 133.334 153.669 134.005C153.249 134.677 153.083 135.259 153.17 135.753C153.261 136.263 153.551 136.671 154.039 136.976C154.507 137.269 154.985 137.342 155.474 137.195C155.956 137.058 156.407 136.654 156.827 135.982L157.639 134.686L159.256 135.698L158.445 136.995C158.063 137.605 157.908 138.124 157.98 138.551C158.062 138.985 158.322 139.339 158.76 139.613C159.217 139.899 159.659 139.985 160.085 139.869C160.512 139.754 160.916 139.391 161.298 138.781C161.68 138.171 161.818 137.634 161.711 137.171C161.605 136.708 161.251 136.232 160.651 135.743L161.855 133.82C162.933 134.609 163.574 135.506 163.78 136.512C163.995 137.525 163.727 138.631 162.976 139.831C162.6 140.432 162.193 140.913 161.754 141.275C161.325 141.643 160.878 141.894 160.412 142.028C159.957 142.167 159.498 142.199 159.036 142.122C158.578 142.062 158.136 141.898 157.709 141.631C156.661 140.975 156.159 140.059 156.201 138.882L156.171 138.863C154.995 139.543 153.832 139.523 152.683 138.803C152.236 138.523 151.869 138.181 151.585 137.776C151.31 137.378 151.136 136.921 151.061 136.408C150.99 135.91 151.026 135.366 151.169 134.776C151.316 134.203 151.59 133.596 151.991 132.955Z" fill="white"/>
<path d="M158.039 146.524L152.61 152.535L151.14 151.208L155.121 146.8L152.784 144.688L149.526 148.295L148.057 146.968L151.314 143.361L148.709 141.009L144.728 145.417L143.259 144.09L148.687 138.079L158.039 146.524Z" fill="white"/>
<path d="M149.033 155.926L146.39 157.862L139.997 153.89L139.968 153.911L141.832 161.204L139.306 163.055L131.857 152.893L133.599 151.616L139.611 159.819L139.64 159.797L137.818 152.652L139.56 151.375L145.825 155.264L145.854 155.243L139.841 147.04L141.583 145.763L149.033 155.926Z" fill="white"/>
<path d="M131.936 154.814L131.772 154.886C131.333 155.08 131.045 155.351 130.91 155.699C130.764 156.052 130.728 156.461 130.802 156.927C130.865 157.397 131.009 157.917 131.234 158.487C131.459 159.057 131.712 159.66 131.992 160.297L134.315 165.568L126.409 169.052L121.328 157.522L123.304 156.651L127.587 166.369L131.54 164.627L130.016 161.168C129.672 160.388 129.364 159.6 129.091 158.802C128.807 158.009 128.656 157.249 128.638 156.523C128.613 155.813 128.771 155.16 129.112 154.564C129.452 153.968 130.073 153.471 130.973 153.074L131.138 153.002L131.936 154.814Z" fill="white"/>
<path d="M121.38 170.614L119.266 171.059L117.226 161.371L117.191 161.379L114.193 172.127L111.34 172.728L108.743 160.399L110.857 159.953L112.897 169.641L112.933 169.634L115.93 158.885L118.783 158.284L121.38 170.614Z" fill="white"/>
<path d="M95.5829 159.981C96.4309 160.063 97.1826 160.268 97.8381 160.597C98.4923 160.937 99.0395 161.388 99.4795 161.949C99.9065 162.521 100.214 163.201 100.403 163.991C100.591 164.793 100.637 165.69 100.541 166.681L100.468 167.433C100.377 168.377 100.164 169.206 99.8298 169.922C99.4954 170.637 99.0645 171.228 98.537 171.695C97.9977 172.162 97.3749 172.493 96.6686 172.69C95.9493 172.898 95.1716 172.961 94.3355 172.88C93.4994 172.8 92.7542 172.589 92.0999 172.248C91.4326 171.919 90.8848 171.474 90.4567 170.914C90.0155 170.365 89.6999 169.702 89.5099 168.924C89.3187 168.158 89.2688 167.303 89.36 166.359L89.4328 165.607C89.5287 164.615 89.7449 163.75 90.0816 163.011C90.4183 162.272 90.8569 161.664 91.3975 161.185C91.9261 160.706 92.55 160.363 93.2694 160.155C93.9756 159.958 94.7468 159.9 95.5829 159.981ZM95.3923 161.951C94.4009 161.856 93.5743 162.113 92.9124 162.724C92.2385 163.334 91.8312 164.368 91.6903 165.825L91.6175 166.578C91.4881 167.915 91.6957 168.948 92.2402 169.676C92.7847 170.404 93.5466 170.815 94.526 170.91C95.5294 171.007 96.3614 170.756 97.0221 170.156C97.6829 169.557 98.0791 168.577 98.2107 167.215L98.2835 166.463C98.4221 165.029 98.2257 163.943 97.6943 163.205C97.151 162.465 96.3837 162.047 95.3923 161.951Z" fill="white"/>
<path d="M83.0603 168.539L86.7716 169.635L86.2104 171.534L76.7164 168.728L77.2776 166.83L80.9889 167.926L83.9989 157.742L86.0703 158.354L83.0603 168.539Z" fill="white"/>
<path d="M70.3326 151.175C71.6303 151.974 72.4161 152.895 72.6901 153.937C72.9579 154.99 72.7708 156.129 72.1289 157.355L70.1977 156.165C70.5313 155.441 70.6353 154.814 70.5097 154.286C70.3738 153.751 69.9687 153.276 69.2943 152.861C68.62 152.446 68.0363 152.284 67.5433 152.375C67.0339 152.47 66.6282 152.762 66.3261 153.253C66.0367 153.723 65.9673 154.201 66.1181 154.689C66.2587 155.17 66.6662 155.618 67.3405 156.034L68.6433 156.836L67.6428 158.461L66.34 157.658C65.727 157.281 65.207 157.13 64.7801 157.205C64.3469 157.29 63.995 157.553 63.7244 157.992C63.4413 158.452 63.359 158.895 63.4776 159.32C63.5961 159.745 63.9619 160.147 64.575 160.524C65.1881 160.902 65.7258 161.036 66.1881 160.926C66.6504 160.816 67.1237 160.459 67.6082 159.856L69.5394 161.045C68.7592 162.129 67.8667 162.777 66.8619 162.99C65.8509 163.213 64.7425 162.953 63.5368 162.21C62.9339 161.839 62.4498 161.435 62.0844 160.999C61.7126 160.573 61.4585 160.127 61.3218 159.663C61.1789 159.208 61.1441 158.75 61.2173 158.288C61.2741 157.829 61.4346 157.385 61.6989 156.956C62.347 155.904 63.2595 155.395 64.4363 155.429L64.4552 155.398C63.7669 154.227 63.7783 153.065 64.4893 151.91C64.7662 151.461 65.1059 151.092 65.5085 150.804C65.9048 150.527 66.3597 150.349 66.873 150.271C67.3699 150.196 67.9139 150.228 68.505 150.367C69.0797 150.509 69.6889 150.779 70.3326 151.175Z" fill="white"/>
<path d="M56.8538 157.34L50.8031 151.955L52.1194 150.476L56.5566 154.425L58.6508 152.072L55.0204 148.841L56.3367 147.362L59.9671 150.593L62.3007 147.971L57.8635 144.022L59.1798 142.543L65.2305 147.928L56.8538 157.34Z" fill="white"/>
<path d="M47.4022 148.409L45.4462 145.781L49.3721 139.358L49.3507 139.329L42.0716 141.247L40.2016 138.734L50.3091 131.211L51.5988 132.944L43.4406 139.016L43.4621 139.045L50.5934 137.17L51.883 138.903L48.0404 145.196L48.0619 145.225L56.2201 139.153L57.5098 140.886L47.4022 148.409Z" fill="white"/>
<path d="M48.4361 131.392L48.3622 131.228C48.1654 130.79 47.8925 130.505 47.5434 130.373C47.1895 130.229 46.7799 130.196 46.3148 130.274C45.8448 130.34 45.3258 130.488 44.7578 130.717C44.1897 130.946 43.5883 131.203 42.9535 131.489L37.7001 133.851L34.1572 125.971L45.6491 120.804L46.5348 122.774L36.8488 127.129L38.6202 131.069L42.0678 129.519C42.8449 129.169 43.6312 128.855 44.4269 128.577C45.2176 128.287 45.976 128.13 46.7021 128.106C47.4123 128.076 48.0667 128.23 48.6652 128.566C49.2636 128.902 49.7646 129.519 50.1681 130.416L50.2419 130.58L48.4361 131.392Z" fill="white"/>
<path d="M32.5447 120.952L32.0835 118.842L41.7551 116.728L41.7474 116.693L30.9765 113.777L30.3538 110.929L42.6632 108.238L43.1244 110.348L33.4528 112.462L33.4605 112.497L44.2314 115.413L44.8541 118.261L32.5447 120.952Z" fill="white"/>
<path d="M42.9585 95.1899C42.8831 96.0385 42.6835 96.7918 42.36 97.4497C42.0245 98.1066 41.5779 98.6572 41.0204 99.1016C40.4519 99.5329 39.7735 99.8461 38.9852 100.041C38.1849 100.235 37.2887 100.288 36.2966 100.199L35.5435 100.132C34.5993 100.048 33.7683 99.8421 33.0506 99.5132C32.3329 99.1843 31.7383 98.758 31.2669 98.2342C30.7965 97.6984 30.4601 97.0782 30.2577 96.3735C30.0445 95.6557 29.9751 94.8785 30.0495 94.0418C30.1239 93.2051 30.3288 92.4584 30.6643 91.8015C30.989 91.1316 31.4295 90.5805 31.986 90.1481C32.5316 89.7027 33.1926 89.382 33.969 89.186C34.7335 88.9889 35.5879 88.9324 36.5321 89.0163L37.2852 89.0833C38.2772 89.1715 39.1441 89.3812 39.8857 89.7121C40.6273 90.0431 41.2392 90.4771 41.7216 91.0139C42.205 91.5388 42.5533 92.1601 42.7666 92.8778C42.969 93.5825 43.0329 94.3532 42.9585 95.1899ZM40.9863 95.0145C41.0745 94.0224 40.8105 93.1978 40.1943 92.5406C39.5792 91.8715 38.5425 91.4721 37.0843 91.3424L36.3312 91.2754C34.9925 91.1564 33.9614 91.3719 33.2378 91.9219C32.5142 92.472 32.1089 93.2371 32.0217 94.2172C31.9324 95.2213 32.1899 96.0513 32.7941 96.7075C33.3984 97.3636 34.3818 97.7522 35.7444 97.8734L36.4975 97.9404C37.9318 98.0679 39.0162 97.8632 39.7507 97.3261C40.4862 96.7771 40.8981 96.0066 40.9863 95.0145Z" fill="white"/>
<path d="M34.2898 82.6774L33.221 86.3969L31.318 85.8501L34.052 76.3351L35.955 76.8819L34.8863 80.6014L45.0933 83.5342L44.4968 85.6102L34.2898 82.6774Z" fill="white"/>
<path d="M51.6159 69.6684C50.8216 70.969 49.9036 71.7583 48.8621 72.0361C47.8104 72.3077 46.6706 72.1249 45.4429 71.4875L46.6251 69.5519C47.351 69.8828 47.9779 69.9845 48.5058 69.8569C49.0399 69.7191 49.5134 69.3123 49.9262 68.6364C50.339 67.9605 50.499 67.3762 50.4061 66.8836C50.3093 66.3745 50.0151 65.9699 49.5235 65.6696C49.0524 65.3819 48.5735 65.3143 48.0866 65.4669C47.6059 65.6093 47.1592 66.0184 46.7464 66.6943L45.9489 68L44.3206 67.0055L45.118 65.6998C45.4933 65.0853 45.6425 64.5648 45.5656 64.1381C45.4785 63.7053 45.2147 63.3543 44.7744 63.0854C44.3135 62.8039 43.8707 62.7233 43.4457 62.8434C43.0208 62.9635 42.6207 63.3308 42.2455 63.9453C41.8702 64.5597 41.7383 65.0979 41.8499 65.5598C41.9616 66.0217 42.3201 66.4937 42.9254 66.976L41.7433 68.9115C40.6566 68.1353 40.005 67.2452 39.7886 66.2412C39.5619 65.231 39.8176 64.1217 40.5557 62.9132C40.9247 62.309 41.3268 61.8234 41.7619 61.4564C42.1867 61.0831 42.6312 60.8273 43.0954 60.6889C43.5493 60.5443 44.0075 60.5078 44.47 60.5794C44.9285 60.6344 45.3728 60.7933 45.8029 61.056C46.8577 61.7003 47.3702 62.6109 47.3404 63.7878L47.3711 63.8066C48.5393 63.114 49.7021 63.1211 50.8593 63.8279C51.3099 64.1031 51.6798 64.4415 51.9688 64.843C52.2477 65.2383 52.4273 65.6925 52.5076 66.2056C52.5839 66.7022 52.5539 67.2463 52.4176 67.8379C52.2772 68.4131 52.01 69.0233 51.6159 69.6684Z" fill="white"/>
<path d="M45.222 56.3903L50.5629 50.3006L52.0515 51.6061L48.1348 56.0719L50.5031 58.1489L53.7076 54.4951L55.1962 55.8006L51.9917 59.4545L54.6306 61.7689L58.5472 57.3031L60.0358 58.6086L54.6949 64.6983L45.222 56.3903Z" fill="white"/>
<path d="M54.0773 46.8382L56.691 44.8631L63.1419 48.742L63.1706 48.7203L61.2002 41.4554L63.6989 39.5671L71.2956 49.6195L69.5723 50.9218L63.4407 42.8081L63.412 42.8298L65.3387 49.9472L63.6155 51.2495L57.2944 47.4529L57.2657 47.4746L63.3973 55.5883L61.674 56.8906L54.0773 46.8382Z" fill="white"/>
<path d="M71.2731 47.6109L71.437 47.5365C71.8741 47.338 72.1582 47.0641 72.2894 46.7145C72.4316 46.36 72.463 45.9504 72.3838 45.4856C72.3154 45.0158 72.1657 44.4973 71.9345 43.9302C71.7033 43.363 71.4438 42.7625 71.156 42.1288L68.7745 36.8842L76.6415 33.3119L81.851 44.7845L79.8843 45.6776L75.4934 36.0078L71.5599 37.794L73.1228 41.2358C73.475 42.0115 73.792 42.7967 74.0738 43.5913C74.3665 44.381 74.5261 45.1388 74.5526 45.8648C74.5851 46.5749 74.4344 47.2298 74.1005 47.8295C73.7666 48.4292 73.1516 48.9325 72.2557 49.3393L72.0918 49.4138L71.2731 47.6109Z" fill="white"/>
<path d="M81.2742 31.7533L83.3808 31.2759L85.5685 40.9312L85.6036 40.9232L88.4366 30.1304L91.2805 29.486L94.0649 41.7745L91.9583 42.2518L89.7706 32.5966L89.7354 32.6045L86.9024 43.3974L84.0585 44.0418L81.2742 31.7533Z" fill="white"/>
<path d="M107.556 41.9345C106.707 41.8623 105.953 41.6657 105.294 41.3446C104.636 41.0117 104.083 40.5673 103.637 40.0114C103.203 39.4446 102.887 38.7674 102.69 37.9798C102.493 37.1803 102.436 36.2843 102.521 35.2919L102.585 34.5386C102.665 33.594 102.868 32.7622 103.194 32.0433C103.521 31.3243 103.945 30.7281 104.467 30.2546C105.001 29.7822 105.62 29.4434 106.323 29.2383C107.04 29.0223 107.817 28.9499 108.654 29.0211C109.491 29.0923 110.239 29.2944 110.897 29.6273C111.568 29.9494 112.121 30.3878 112.555 30.9426C113.003 31.4865 113.326 32.1463 113.525 32.9219C113.725 33.6856 113.785 34.5398 113.705 35.4844L113.641 36.2376C113.556 37.2301 113.35 38.0977 113.022 38.8406C112.694 39.5834 112.262 40.1971 111.727 40.6815C111.204 41.1669 110.584 41.5176 109.867 41.7336C109.163 41.9387 108.393 42.0057 107.556 41.9345ZM107.724 39.9616C108.716 40.046 109.54 39.7788 110.194 39.1601C110.861 38.5424 111.257 37.5042 111.381 36.0454L111.445 35.2921C111.559 33.953 111.339 32.9227 110.786 32.2012C110.234 31.4798 109.467 31.0774 108.486 30.994C107.482 30.9085 106.653 31.1692 105.999 31.776C105.345 32.3828 104.961 33.3677 104.845 34.7308L104.781 35.4841C104.659 36.9189 104.867 38.0025 105.407 38.7349C105.959 39.4683 106.731 39.8772 107.724 39.9616Z" fill="white"/>
<path d="M119.652 33.109L115.925 32.0685L116.457 30.1614L125.993 32.8232L125.46 34.7303L121.733 33.6898L118.877 43.9187L116.797 43.3379L119.652 33.109Z" fill="white"/>
<path d="M132.913 50.3581C131.607 49.5733 130.811 48.6612 130.525 47.6218C130.246 46.5721 130.421 45.431 131.049 44.1986L132.993 45.3665C132.667 46.0949 132.57 46.7225 132.702 47.2494C132.844 47.7825 133.254 48.253 133.933 48.6608C134.612 49.0686 135.197 49.2243 135.689 49.1279C136.197 49.0273 136.6 48.7301 136.897 48.2363C137.181 47.7632 137.245 47.2837 137.089 46.7979C136.943 46.3183 136.53 45.8746 135.852 45.4668L134.54 44.6789L135.522 43.0433L136.834 43.8312C137.451 44.202 137.973 44.3473 138.399 44.2673C138.831 44.177 139.18 43.9106 139.446 43.4683C139.724 43.0054 139.801 42.562 139.678 42.1379C139.555 41.7139 139.185 41.3165 138.567 40.9458C137.95 40.575 137.411 40.4472 136.95 40.5622C136.489 40.6772 136.02 41.0391 135.542 41.648L133.598 40.4801C134.366 39.3878 135.251 38.7297 136.253 38.5059C137.262 38.2718 138.373 38.5193 139.587 39.2485C140.194 39.6131 140.682 40.0115 141.053 40.4439C141.429 40.866 141.688 41.3086 141.83 41.7717C141.978 42.2246 142.018 42.6825 141.95 43.1455C141.898 43.6044 141.742 44.0499 141.483 44.4819C140.846 45.5414 139.939 46.0606 138.762 46.0394L138.744 46.0703C139.445 47.2334 139.446 48.3961 138.748 49.5585C138.476 50.0112 138.141 50.3835 137.741 50.6755C137.348 50.9572 136.895 51.1402 136.383 51.2243C135.887 51.3043 135.342 51.2783 134.75 51.1462C134.173 51.0101 133.561 50.7474 132.913 50.3581Z" fill="white"/>
<path d="M146.151 43.8599L152.279 49.1564L150.984 50.6545L146.49 46.7704L144.431 49.1537L148.108 52.3315L146.813 53.8296L143.136 50.6517L140.841 53.3074L145.335 57.1914L144.04 58.6895L137.912 53.3931L146.151 43.8599Z" fill="white"/>
<path d="M155.803 52.674L157.797 55.2731L153.966 61.7522L153.987 61.7808L161.238 59.7573L163.144 62.2422L153.148 69.912L151.833 68.1983L159.902 62.0077L159.88 61.9791L152.776 63.9577L151.462 62.244L155.212 55.8954L155.19 55.8669L147.121 62.0575L145.806 60.3438L155.803 52.674Z" fill="white"/>
<path d="M155.16 69.8808L155.236 70.0442C155.438 70.4797 155.714 70.7618 156.064 70.8904C156.42 71.0299 156.83 71.0583 157.294 70.9756C157.763 70.9038 158.281 70.7501 158.846 70.5147C159.412 70.2793 160.01 70.0154 160.642 69.7229L165.868 67.3024L169.499 75.1426L158.066 80.4374L157.158 78.4773L166.795 74.0146L164.979 70.0945L161.549 71.683C160.776 72.041 159.993 72.3638 159.201 72.6515C158.413 72.95 157.657 73.1153 156.931 73.1472C156.221 73.185 155.565 73.0392 154.963 72.7097C154.361 72.3803 153.853 71.7691 153.439 70.8762L153.364 70.7129L155.16 69.8808Z" fill="white"/>
<path d="M171.215 80.2171L171.7 82.3219L162.053 84.5463L162.061 84.5814L172.865 87.3733L173.52 90.2148L161.242 93.0459L160.757 90.9411L170.404 88.7167L170.396 88.6816L159.592 85.8897L158.937 83.0482L171.215 80.2171Z" fill="white"/>
</svg>
